<?xml version="1.0" standalone="no"?>
<!DOCTYPE svg PUBLIC "-//W3C//DTD SVG 20010904//EN"
 "http://www.w3.org/TR/2001/REC-SVG-20010904/DTD/svg10.dtd">
<svg version="1.0" xmlns="http://www.w3.org/2000/svg"
 width="135.000000pt" height="136.000000pt" viewBox="0 0 135.000000 136.000000"
 preserveAspectRatio="xMidYMid meet">

<g transform="translate(0.000000,136.000000) scale(0.100000,-0.100000)"
fill="#000000" stroke="none">
<path d="M699 1290 c-101 -34 -117 -85 -58 -179 44 -70 46 -145 6 -214 -37
-63 -69 -82 -142 -81 -73 0 -115 23 -156 86 -25 37 -29 52 -29 115 0 64 3 77
32 120 41 62 89 113 105 113 7 0 13 4 13 8 0 5 10 14 23 21 56 29 -32 -3 -101
-36 -83 -41 -204 -152 -237 -218 -10 -22 -24 -47 -31 -55 -21 -28 -64 -182
-64 -232 0 -17 36 -18 621 -18 l621 0 -7 66 c-6 60 -38 154 -78 228 -25 46
-119 151 -159 176 -21 13 -38 28 -38 32 0 4 -9 8 -20 8 -11 0 -20 3 -20 8 0
12 -110 51 -172 60 -46 7 -68 5 -109 -8z"/>
<path d="M60 641 c0 -6 5 -13 10 -16 6 -3 10 -2 10 4 0 5 15 12 33 14 28 3 26
4 -10 5 -24 1 -43 -2 -43 -7z"/>
</g>
</svg>
