<?xml version="1.0" encoding="UTF-8" standalone="no"?>
<!-- Created with Inkscape (http://www.inkscape.org/) -->

<svg
   width="11.335794mm"
   height="10.177609mm"
   viewBox="0 0 11.335794 10.177609"
   version="1.1"
   id="svg1"
   xml:space="preserve"
   xmlns="http://www.w3.org/2000/svg"
   xmlns:svg="http://www.w3.org/2000/svg"><defs
     id="defs1" /><g
     id="layer1"
     transform="translate(-64.373094,-145.71742)"><g
       id="g41"><rect
         style="fill:#6366f1;fill-opacity:1;stroke-width:0.370238;stroke-linecap:square;paint-order:fill markers stroke"
         id="rect40"
         width="11.335798"
         height="10.177624"
         x="64.373093"
         y="145.71742"
         ry="1.0914671" /><path
         d="m 71.492837,148.70088 h -0.362965 v -0.36294 a 0.21778356,0.21778356 0 0 0 -0.435567,0 v 0.36294 h -1.306653 v -0.36294 a 0.21777728,0.21777728 0 0 0 -0.435551,0 v 0.36294 h -0.362964 a 0.79851667,0.79851667 0 0 0 -0.798515,0.79853 v 3.19407 a 0.79851667,0.79851667 0 0 0 0.798515,0.79852 h 2.9037 a 0.79851667,0.79851667 0 0 0 0.798515,-0.79852 v -3.19407 a 0.79851667,0.79851667 0 0 0 -0.798515,-0.79853 z m -2.9037,0.43557 h 0.362964 v 0.36296 a 0.21777728,0.21777728 0 0 0 0.435551,0 v -0.36296 h 1.306653 v 0.36296 a 0.21778356,0.21778356 0 0 0 0.435567,0 v -0.36296 h 0.362965 a 0.36296213,0.36296213 0 0 1 0.362948,0.36296 v 0.79852 h -3.629613 v -0.79852 a 0.36296213,0.36296213 0 0 1 0.362965,-0.36296 z m 2.9037,3.91999 h -2.9037 a 0.36296213,0.36296213 0 0 1 -0.362965,-0.36296 v -1.95999 h 3.629613 v 1.95999 a 0.36296213,0.36296213 0 0 1 -0.362948,0.36296 z"
         id="path40"
         style="stroke-width:0.29037" /></g></g></svg>
