<?xml version="1.0" encoding="UTF-8" standalone="no"?>
<!-- Created with Inkscape (http://www.inkscape.org/) -->

<svg
   width="56.472958mm"
   height="13.694384mm"
   viewBox="0 0 56.472958 13.694384"
   version="1.1"
   id="svg1"
   xml:space="preserve"
   xmlns="http://www.w3.org/2000/svg"
   xmlns:svg="http://www.w3.org/2000/svg"><defs
     id="defs1" /><g
     id="layer1"
     transform="translate(-201.51606,-83.457754)"><g
       id="g4"><rect
         style="fill:#6366f1;fill-opacity:1;stroke-width:0.95857;stroke-linecap:square;paint-order:fill markers stroke"
         id="rect4"
         width="56.472958"
         height="13.694382"
         x="201.51605"
         y="83.457756"
         ry="1.4473977" /><text
         xml:space="preserve"
         style="font-size:6.25126px;font-family:Raleway;-inkscape-font-specification:Raleway;fill:#6c757d;fill-opacity:1;stroke-width:0.781162;stroke-linecap:square;paint-order:fill markers stroke"
         x="212.19751"
         y="93.096344"
         id="text4"><tspan
           id="tspan4"
           style="font-style:normal;font-variant:normal;font-weight:normal;font-stretch:normal;font-family:Roboto;-inkscape-font-specification:Roboto;fill:#ffffff;stroke-width:0.781162"
           x="212.19751"
           y="93.096344">Nueva Ósmosis</tspan></text><path
         d="m 207.38047,90.039349 v -2.208658 a 0.26504246,0.26504246 0 0 0 -0.53008,0 v 2.208658 h -2.20865 a 0.26503837,0.26503837 0 0 0 0,0.530071 h 2.20865 v 2.208658 a 0.26857222,0.26857222 0 0 0 0.26504,0.265029 0.26503837,0.26503837 0 0 0 0.26504,-0.265029 V 90.56942 h 2.20865 a 0.26503837,0.26503837 0 0 0 0.26504,-0.265042 0.26857222,0.26857222 0 0 0 -0.26504,-0.265029 z"
         id="path1-53"
         style="fill:#ffffff;stroke-width:0.353384" /></g></g></svg>
