<?xml version="1.0" encoding="UTF-8" standalone="no"?>
<!-- Created with Inkscape (http://www.inkscape.org/) -->

<svg
   width="11.957264mm"
   height="11.957265mm"
   viewBox="0 0 11.957264 11.957265"
   version="1.1"
   id="svg1"
   xml:space="preserve"
   xmlns="http://www.w3.org/2000/svg"
   xmlns:svg="http://www.w3.org/2000/svg"><defs
     id="defs1" /><g
     id="layer1"
     transform="translate(-76.931856,-88.412298)"><g
       id="g11"><circle
         style="fill:#f38c8d;fill-opacity:1;stroke:none;stroke-width:0.373839;stroke-linecap:square;paint-order:fill markers stroke"
         id="circle10"
         cx="82.910492"
         cy="94.39093"
         r="5.9786325" /><path
         d="m 84.638222,93.597175 -1.46315,-1.46315 a 0.1984375,0.1984375 0 0 0 -0.14022,-0.0582 h -1.18269 a 0.72760417,0.72760417 0 0 0 -0.72761,0.72761 v 3.175 a 0.72760417,0.72760417 0 0 0 0.72761,0.7276 h 2.11666 a 0.72760417,0.72760417 0 0 0 0.72761,-0.7276 v -2.24896 a 0.1984375,0.1984375 0 0 0 -0.0582,-0.13229 z m -1.397,-0.84402 0.77788,0.77787 h -0.77788 z m 0.7276,3.556 h -2.11666 a 0.33072917,0.33072917 0 0 1 -0.33073,-0.33073 v -3.175 a 0.33072917,0.33072917 0 0 1 0.33073,-0.33073 h 0.99219 v 1.25677 a 0.20108333,0.20108333 0 0 0 0.19843,0.19844 h 1.25677 v 2.05052 a 0.33072917,0.33072917 0 0 1 -0.33073,0.33073 z"
         id="path1-54"
         style="fill:#ffffff;stroke-width:0.264583" /></g></g></svg>
