<?xml version="1.0" encoding="UTF-8" standalone="no"?>
<!-- Created with Inkscape (http://www.inkscape.org/) -->

<svg
   width="12.92499mm"
   height="9.1493282mm"
   viewBox="0 0 12.92499 9.1493282"
   version="1.1"
   id="svg1"
   xml:space="preserve"
   xmlns="http://www.w3.org/2000/svg"
   xmlns:svg="http://www.w3.org/2000/svg"><defs
     id="defs1" /><g
     id="layer1"
     transform="translate(-30.570788,-172.22052)"><g
       id="g51"><rect
         style="fill:#6366f1;fill-opacity:1;stroke-width:0.374837;stroke-linecap:square;paint-order:fill markers stroke"
         id="rect50"
         width="12.924991"
         height="9.1493292"
         x="30.570787"
         y="172.2205"
         ry="4.5746646" /><g
         id="cloud-upload"
         transform="matrix(0.26458333,0,0,0.26458333,33.851844,173.63786)"
         style="fill:#ffffff"><path
           d="m 17.5,18.25 a 0.75,0.75 0 0 1 0,-1.5 c 1.66,0 2.25,-0.83 2.25,-3.18 a 3.57,3.57 0 0 0 -3.25,-3.25 3.34,3.34 0 0 0 -1,0.18 0.74,0.74 0 0 1 -1,-0.49 5.25,5.25 0 0 0 -10.25,1.56 c 0,3.44 0.76,5.18 2.25,5.18 a 0.75,0.75 0 0 1 0,1.5 C 4,18.25 2.75,16 2.75,11.57 a 6.75,6.75 0 0 1 13,-2.68 4.4,4.4 0 0 1 0.8,-0.07 5.07,5.07 0 0 1 4.75,4.75 c -0.05,1.28 -0.05,4.68 -3.8,4.68 z"
           id="path1-61"
           style="fill:#ffffff" /><path
           d="M 14.83,15.65 A 0.77,0.77 0 0 1 14.3,15.43 L 12,13.13 9.7,15.43 A 0.75,0.75 0 0 1 8.64,14.37 l 2.83,-2.83 a 0.74,0.74 0 0 1 1.06,0 l 2.83,2.83 a 0.75,0.75 0 0 1 0,1.06 0.79,0.79 0 0 1 -0.53,0.22 z"
           id="path2-59"
           style="fill:#ffffff" /><path
           d="m 12,19.18 a 0.75,0.75 0 0 1 -0.75,-0.75 v -6.36 a 0.75,0.75 0 0 1 1.5,0 v 6.36 A 0.75,0.75 0 0 1 12,19.18 Z"
           id="path3-4"
           style="fill:#ffffff" /></g></g></g></svg>
