<?xml version="1.0" encoding="UTF-8" standalone="no"?>
<!-- Created with Inkscape (http://www.inkscape.org/) -->

<svg
   width="11.957264mm"
   height="11.957265mm"
   viewBox="0 0 11.957264 11.957265"
   version="1.1"
   id="svg1"
   xml:space="preserve"
   xmlns="http://www.w3.org/2000/svg"
   xmlns:svg="http://www.w3.org/2000/svg"><defs
     id="defs1" /><g
     id="layer1"
     transform="translate(-51.585584,-87.517667)"><g
       id="g12"
       transform="translate(-4.5886868)"><circle
         style="fill:#6366f1;fill-opacity:1;stroke:none;stroke-width:0.373839;stroke-linecap:square;stroke-opacity:1;paint-order:fill markers stroke"
         id="circle9"
         cx="62.152901"
         cy="93.496292"
         r="5.9786325" /><g
         id="sync"
         transform="matrix(0.26458333,0,0,0.26458333,58.980483,90.321292)"
         style="fill:#ffffff"><path
           d="M 18.43,4.25 A 0.76,0.76 0 0 0 17.68,5 V 7.43 L 16.84,6.59 a 7.24,7.24 0 0 0 -12,2.78 0.74,0.74 0 0 0 0.46,1 0.73,0.73 0 0 0 0.25,0 0.76,0.76 0 0 0 0.71,-0.51 5.63,5.63 0 0 1 1.37,-2.2 5.76,5.76 0 0 1 8.13,0 L 16.6,8.5 h -2.41 a 0.75,0.75 0 0 0 0,1.5 h 4.24 A 0.74,0.74 0 0 0 19.18,9.25 V 5 A 0.75,0.75 0 0 0 18.43,4.25 Z"
           id="path1-4"
           style="fill:#ffffff" /><path
           d="m 18.68,13.68 a 0.76,0.76 0 0 0 -1,0.47 5.63,5.63 0 0 1 -1.37,2.2 5.76,5.76 0 0 1 -8.13,0 L 7.34,15.51 h 2.47 a 0.75,0.75 0 0 0 0,-1.5 H 5.57 A 0.74,0.74 0 0 0 4.82,14.76 V 19 a 0.75,0.75 0 0 0 1.5,0 v -2.43 l 0.84,0.84 a 7.24,7.24 0 0 0 12,-2.78 0.74,0.74 0 0 0 -0.48,-0.95 z"
           id="path2-52"
           style="fill:#ffffff" /></g></g></g></svg>
