<?xml version="1.0" encoding="UTF-8" standalone="no"?>
<!-- Created with Inkscape (http://www.inkscape.org/) -->

<svg
   width="64.586815mm"
   height="11.015583mm"
   viewBox="0 0 64.586815 11.015583"
   version="1.1"
   id="svg1"
   xml:space="preserve"
   xmlns="http://www.w3.org/2000/svg"
   xmlns:svg="http://www.w3.org/2000/svg"><defs
     id="defs1" /><g
     id="layer1"
     transform="translate(-108.03952,-92.075818)"><g
       id="g13"><g
         id="g17"><rect
           style="fill:#6366f1;fill-opacity:1;stroke-width:0.919407;stroke-linecap:square;paint-order:fill markers stroke"
           id="rect3"
           width="64.586815"
           height="11.015582"
           x="108.03951"
           y="92.075813"
           ry="1.1642678" /><g
           id="g16"
           transform="translate(0.75881048)"><text
             xml:space="preserve"
             style="font-size:5.02842px;font-family:Raleway;-inkscape-font-specification:Raleway;fill:#6c757d;fill-opacity:1;stroke-width:0.628356;stroke-linecap:square;paint-order:fill markers stroke"
             x="116.96645"
             y="99.44471"
             id="text3"><tspan
               id="tspan3"
               style="font-style:normal;font-variant:normal;font-weight:normal;font-stretch:normal;font-family:Roboto;-inkscape-font-specification:Roboto;fill:#ffffff;stroke-width:0.628356"
               x="116.96645"
               y="99.44471">Nueva lista de mcomm</tspan></text><path
             d="m 113.24935,97.38517 v -1.65365 a 0.19844,0.19844 0 0 0 -0.39688,0 v 1.65365 h -1.65364 a 0.1984375,0.1984375 0 0 0 0,0.39687 h 1.65364 v 1.65365 a 0.20108333,0.20108333 0 0 0 0.19844,0.19844 0.1984375,0.1984375 0 0 0 0.19844,-0.19844 v -1.65365 h 1.65364 a 0.1984375,0.1984375 0 0 0 0.19844,-0.19843 0.20108333,0.20108333 0 0 0 -0.19844,-0.19844 z"
             id="path1-0"
             style="fill:#ffffff;stroke-width:0.264583" /></g></g></g></g></svg>
