<?xml version="1.0" encoding="UTF-8" standalone="no"?>
<!-- Created with Inkscape (http://www.inkscape.org/) -->

<svg
   width="11.957264mm"
   height="11.957265mm"
   viewBox="0 0 11.957264 11.957265"
   version="1.1"
   id="svg1"
   xml:space="preserve"
   xmlns="http://www.w3.org/2000/svg"
   xmlns:svg="http://www.w3.org/2000/svg"><defs
     id="defs1" /><g
     id="layer1"
     transform="translate(-30.961648,-87.517667)"><g
       id="g10"><circle
         style="fill:#6366f1;fill-opacity:1;stroke:none;stroke-width:0.373839;stroke-linecap:square;paint-order:fill markers stroke"
         id="path9"
         cx="36.940281"
         cy="93.496292"
         r="5.9786325" /><g
         id="search"
         transform="matrix(0.26458333,0,0,0.26458333,33.766691,90.322614)"
         style="fill:#ffffff"><path
           d="m 10.77,18.3 a 7.53,7.53 0 1 1 7.53,-7.53 7.53,7.53 0 0 1 -7.53,7.53 z m 0,-13.55 a 6,6 0 1 0 6,6 6,6 0 0 0 -6,-6 z"
           id="path1-6"
           style="fill:#ffffff" /><path
           d="M 20,20.75 A 0.74,0.74 0 0 1 19.47,20.53 L 15.34,16.4 a 0.75,0.75 0 0 1 1.06,-1.06 l 4.13,4.13 a 0.75,0.75 0 0 1 0,1.06 0.74,0.74 0 0 1 -0.53,0.22 z"
           id="path2-9"
           style="fill:#ffffff" /></g></g></g></svg>
