<?xml version="1.0" encoding="UTF-8" standalone="no"?>
<!-- Created with Inkscape (http://www.inkscape.org/) -->

<svg
   width="3.0949016mm"
   height="4.6301923mm"
   viewBox="0 0 3.0949016 4.6301923"
   version="1.1"
   id="svg1"
   xml:space="preserve"
   xmlns="http://www.w3.org/2000/svg"
   xmlns:svg="http://www.w3.org/2000/svg"><defs
     id="defs1" /><g
     id="layer1"
     transform="translate(-172.02848,-166.66946)"><g
       id="g5"
       transform="translate(4.4131957,0.05061313)"
       style="fill:#000000"><path
         d="m 168.27423,168.88245 a 0.20108333,0.20108333 0 0 1 0.28063,9.3e-4 l 0.60605,0.61003 0.61003,-0.60605 a 0.1984375,0.1984375 0 0 1 0.27971,0.28155 l -0.7508,0.7459 a 0.20108333,0.20108333 0 0 1 -0.28064,-9.2e-4 l -0.7459,-0.7508 a 0.20108333,0.20108333 0 0 1 9.2e-4,-0.28064 z"
         id="path2-3"
         style="fill:#000000;stroke-width:0.264583" /><path
         style="fill:#000000;fill-opacity:1;stroke-width:0.00798017;stroke-linecap:square;paint-order:fill markers stroke"
         d="m 169.12039,169.96534 c -0.0349,-0.01 -0.0602,-0.0281 -0.0876,-0.0615 -0.0268,-0.0326 -0.0413,-0.0626 -0.0504,-0.10453 -0.008,-0.0355 -0.008,-1.69522 0,-1.7308 0.008,-0.0363 0.0223,-0.0687 0.0425,-0.0958 0.0232,-0.0311 0.0433,-0.048 0.0735,-0.062 0.10508,-0.0484 0.22114,0.0314 0.2447,0.16825 0.008,0.0466 0.008,1.66332 0,1.70987 -0.0216,0.12571 -0.12302,0.20604 -0.22272,0.17643 z"
         id="path5" /></g><path
       id="rect27"
       style="fill:#000000;fill-opacity:1;stroke-width:0.529;stroke-linecap:square;paint-order:fill markers stroke"
       d="m 172.66204,166.66946 c -0.35108,0 -0.63355,0.28299 -0.63355,0.63407 v 3.36258 c 0,0.35108 0.28247,0.63355 0.63355,0.63355 h 1.82779 c 0.35108,0 0.63356,-0.28247 0.63356,-0.63355 v -3.36258 c 0,-0.35108 -0.28248,-0.63407 -0.63356,-0.63407 z m 0.1018,0.43718 h 1.62419 c 0.14502,0 0.26148,0.11646 0.26148,0.26148 v 3.23288 c 0,0.14502 -0.11646,0.262 -0.26148,0.262 h -1.62419 c -0.14502,0 -0.262,-0.11698 -0.262,-0.262 v -3.23288 c 0,-0.14502 0.11698,-0.26148 0.262,-0.26148 z" /></g></svg>
