<?xml version="1.0" encoding="UTF-8" standalone="no"?>
<!-- Created with Inkscape (http://www.inkscape.org/) -->

<svg
   width="38.689743mm"
   height="13.69438mm"
   viewBox="0 0 38.689743 13.69438"
   version="1.1"
   id="svg1"
   xml:space="preserve"
   xmlns="http://www.w3.org/2000/svg"
   xmlns:svg="http://www.w3.org/2000/svg"><defs
     id="defs1" /><g
     id="layer1"
     transform="translate(60.390649,-50.664923)"><g
       id="g56"><rect
         style="fill:#6366f1;fill-opacity:1;stroke-width:0.793421;stroke-linecap:square;paint-order:fill markers stroke"
         id="rect56"
         width="38.689743"
         height="13.694382"
         x="-60.390648"
         y="50.664921"
         ry="1.4473977" /><text
         xml:space="preserve"
         style="font-size:6.25126px;font-family:Raleway;-inkscape-font-specification:Raleway;fill:#6c757d;fill-opacity:1;stroke-width:0.781162;stroke-linecap:square;paint-order:fill markers stroke"
         x="-47.103363"
         y="59.236702"
         id="text56"><tspan
           id="tspan56"
           style="font-style:normal;font-variant:normal;font-weight:normal;font-stretch:normal;font-family:Roboto;-inkscape-font-specification:Roboto;fill:#ffffff;stroke-width:0.781162"
           x="-47.103363"
           y="59.236702">Config</tspan></text><g
         id="g55"
         transform="matrix(0.35539052,0,0,0.35539052,-56.347323,53.247425)"
         style="fill:#ffffff"><path
           d="M 12,14.93 A 2.93,2.93 0 1 1 14.93,12 2.93,2.93 0 0 1 12,14.93 Z m 0,-4.36 A 1.43,1.43 0 1 0 13.43,12 1.43,1.43 0 0 0 12,10.57 Z"
           id="path54"
           style="fill:#ffffff" /><path
           d="M 12.06,20.75 A 2.22,2.22 0 0 1 9.85,18.51 0.48,0.48 0 0 0 9.56,18.09 0.51,0.51 0 0 0 9,18.18 2.24,2.24 0 0 1 7.44,18.83 2.26,2.26 0 0 1 5.86,18.2 2.22,2.22 0 0 1 5.86,15.06 0.5,0.5 0 0 0 6,14.54 0.56,0.56 0 0 0 5.52,14.26 2.27,2.27 0 0 1 3.26,12.06 2.22,2.22 0 0 1 5.49,9.85 0.48,0.48 0 0 0 5.91,9.56 0.51,0.51 0 0 0 5.82,9 2.24,2.24 0 0 1 5.17,7.44 2.2,2.2 0 0 1 5.8,5.86 2.22,2.22 0 0 1 8.94,5.86 0.58,0.58 0 0 0 9.49,6 0.6,0.6 0 0 0 9.8,5.52 2.27,2.27 0 0 1 12,3.25 2.22,2.22 0 0 1 14.2,5.49 0.52,0.52 0 0 0 14.48,5.93 0.5,0.5 0 0 0 15,5.82 a 2.24,2.24 0 0 1 1.56,-0.65 2.13,2.13 0 0 1 1.58,0.63 2.22,2.22 0 0 1 0,3.14 0.58,0.58 0 0 0 -0.11,0.55 0.6,0.6 0 0 0 0.48,0.31 2.27,2.27 0 0 1 2.24,2.2 2.22,2.22 0 0 1 -2.24,2.2 0.52,0.52 0 0 0 -0.44,0.28 v 0 a 0.5,0.5 0 0 0 0.11,0.52 2.24,2.24 0 0 1 0.65,1.56 2.2,2.2 0 0 1 -0.63,1.58 2.22,2.22 0 0 1 -3.14,0 0.5,0.5 0 0 0 -0.52,-0.11 0.56,0.56 0 0 0 -0.28,0.48 2.27,2.27 0 0 1 -2.2,2.24 z M 9.35,16.54 a 1.83,1.83 0 0 1 0.77,0.16 2,2 0 0 1 1.23,1.8 0.74,0.74 0 0 0 0.71,0.75 0.76,0.76 0 0 0 0.7,-0.77 2.06,2.06 0 0 1 1.18,-1.85 2,2 0 0 1 2.18,0.43 0.70710678,0.70710678 0 1 0 1,-1 2,2 0 0 1 -0.42,-2.18 2,2 0 0 1 1.82,-1.18 0.73,0.73 0 0 0 0.74,-0.7 0.75,0.75 0 0 0 -0.77,-0.7 2.1,2.1 0 0 1 -1.85,-1.22 2.05,2.05 0 0 1 0.43,-2.2 0.70710678,0.70710678 0 1 0 -1,-1 2,2 0 0 1 -3.36,-1.4 0.73,0.73 0 0 0 -0.7,-0.74 0.75,0.75 0 0 0 -0.7,0.77 2.1,2.1 0 0 1 -1.22,1.85 2.05,2.05 0 0 1 -2.2,-0.43 0.70710678,0.70710678 0 1 0 -1,1 2,2 0 0 1 0.41,2.18 2,2 0 0 1 -1.8,1.23 0.74,0.74 0 0 0 -0.75,0.71 0.76,0.76 0 0 0 0.77,0.7 2.06,2.06 0 0 1 1.85,1.18 2,2 0 0 1 -0.43,2.18 0.70710678,0.70710678 0 1 0 1,1 2.06,2.06 0 0 1 1.41,-0.57 z m 8,-2.36 z"
           id="path55"
           style="fill:#ffffff" /></g></g></g></svg>
